<svg width="650" height="286" viewBox="0 0 650 286" fill="none" xmlns="http://www.w3.org/2000/svg">
<rect width="650" height="286" fill="#45474B"/>
<path d="M118.5 216.5C156.186 216.5 186.5 185.027 186.5 146.5C186.5 107.973 156.186 76.5 118.5 76.5C80.8141 76.5 50.5 107.973 50.5 146.5C50.5 185.027 80.8141 216.5 118.5 216.5Z" fill="#45474B" stroke="#898989" stroke-width="9"/>
<path d="M142.754 180.526L112.079 198.236L109.549 193.854L116.715 185.335L84.9747 130.36L74.0142 132.306L71.4842 127.924L102.258 110.156C113.014 103.946 123.585 102.092 133.971 104.595C144.357 107.097 152.617 113.66 158.75 124.283C164.884 134.906 166.423 145.393 163.369 155.743C160.382 166.055 153.51 174.316 142.754 180.526ZM126.946 179.826L139.694 172.466C146.865 168.326 151.341 162.51 153.124 155.019C154.935 147.422 153.33 139.275 148.308 130.577C143.287 121.879 137.034 116.415 129.549 114.186C122.027 111.889 114.713 112.792 107.609 116.894L94.8611 124.254L126.946 179.826Z" fill="#898989"/>
<path d="M243.464 177H213.896V172.776L222.632 169.608V116.616L213.896 113.448V109.224H243.56C253.928 109.224 262.344 112.296 268.808 118.44C275.272 124.584 278.504 132.776 278.504 143.016C278.504 153.256 275.24 161.48 268.712 167.688C262.248 173.896 253.832 177 243.464 177ZM232.328 169.896H244.616C251.528 169.896 257.192 167.56 261.608 162.888C266.088 158.152 268.328 151.592 268.328 143.208C268.328 134.824 266.088 128.264 261.608 123.528C257.128 118.728 251.464 116.328 244.616 116.328H232.328V169.896ZM312.709 177.96C305.477 177.96 299.589 175.912 295.045 171.816C290.565 167.656 288.325 161.608 288.325 153.672C288.325 145.736 290.629 139.464 295.237 134.856C299.845 130.184 305.221 127.848 311.365 127.848C325.957 127.848 333.253 136.488 333.253 153.768H297.637V154.248C297.637 158.792 299.237 162.632 302.437 165.768C305.637 168.904 309.989 170.472 315.493 170.472C317.861 170.472 320.101 170.216 322.213 169.704C324.325 169.128 325.861 168.552 326.821 167.976L328.165 167.208L330.949 172.2C330.757 172.328 330.469 172.552 330.085 172.872C329.765 173.128 329.029 173.576 327.877 174.216C326.725 174.856 325.477 175.432 324.133 175.944C320.741 177.288 316.933 177.96 312.709 177.96ZM324.325 147.624C324.005 143.656 322.693 140.648 320.389 138.6C318.149 136.488 315.205 135.432 311.557 135.432C307.973 135.432 304.997 136.456 302.629 138.504C300.261 140.488 298.725 143.528 298.021 147.624H324.325ZM398.791 170.472C392.071 175.528 384.103 178.056 374.887 178.056C366.247 178.056 358.759 175.272 352.423 169.704C349.351 167.016 346.887 163.496 345.031 159.144C343.175 154.728 342.247 149.736 342.247 144.168C342.247 138.6 343.207 133.48 345.127 128.808C347.111 124.136 349.735 120.328 352.999 117.384C359.719 111.304 367.591 108.264 376.615 108.264C383.399 108.264 389.319 109.64 394.375 112.392V128.04H386.503L384.775 118.056C383.495 116.648 380.839 115.944 376.807 115.944C369.191 115.944 363.207 118.6 358.855 123.912C354.503 129.224 352.327 135.912 352.327 143.976C352.327 151.976 354.567 158.376 359.047 163.176C363.591 167.912 369.319 170.28 376.231 170.28C379.495 170.28 382.727 169.8 385.927 168.84C389.127 167.88 391.495 166.92 393.031 165.96L395.335 164.52L398.791 170.472ZM430.465 177H405.217V172.872L413.281 169.704V135.432H405.217V129.672C407.713 128.456 410.529 127.848 413.665 127.848C416.801 127.848 418.977 128.52 420.193 129.864C421.409 131.208 422.081 133.192 422.209 135.816C422.849 133.896 424.161 132.168 426.145 130.632C428.513 128.776 431.649 127.848 435.553 127.848C437.281 127.848 438.913 128.072 440.449 128.52C442.049 128.968 443.201 129.416 443.905 129.864L445.057 130.536V141.864H439.297L438.049 136.104C437.665 135.72 436.609 135.528 434.881 135.528C433.153 135.528 431.489 135.784 429.889 136.296C428.289 136.744 427.041 137.32 426.145 138.024C424.353 139.56 423.073 141.128 422.305 142.728V169.704L430.465 172.872V177ZM476.407 177H451.159V172.872L459.223 169.704V135.432H451.159V129.672C453.655 128.456 456.535 127.848 459.799 127.848C463.127 127.848 465.367 128.648 466.519 130.248C467.671 131.784 468.247 134.152 468.247 137.352V169.704L476.407 172.872V177ZM468.631 116.808C467.159 118.28 465.367 119.016 463.255 119.016C461.143 119.016 459.351 118.28 457.879 116.808C456.407 115.336 455.671 113.544 455.671 111.432C455.671 109.32 456.407 107.528 457.879 106.056C459.351 104.584 461.143 103.848 463.255 103.848C465.367 103.848 467.159 104.584 468.631 106.056C470.103 107.528 470.839 109.32 470.839 111.432C470.839 113.544 470.103 115.336 468.631 116.808ZM496.858 155.976C496.858 161.48 497.69 165.224 499.354 167.208C501.018 169.192 503.546 170.184 506.938 170.184C510.33 170.184 513.114 169.672 515.29 168.648L517.21 173.448C516.954 173.768 516.57 174.184 516.058 174.696C515.61 175.208 514.426 175.912 512.506 176.808C510.586 177.64 508.474 178.056 506.17 178.056C500.346 178.056 495.834 176.424 492.634 173.16C489.434 169.832 487.834 165 487.834 158.664V136.584H482.746V130.92L491.962 121.704H496.858V129H512.986V136.584H496.858V155.976ZM547.47 177H522.222V172.872L530.286 169.704V135.432H522.222V129.672C524.718 128.456 527.598 127.848 530.862 127.848C534.19 127.848 536.43 128.648 537.582 130.248C538.734 131.784 539.31 134.152 539.31 137.352V169.704L547.47 172.872V177ZM539.694 116.808C538.222 118.28 536.43 119.016 534.318 119.016C532.206 119.016 530.414 118.28 528.942 116.808C527.47 115.336 526.734 113.544 526.734 111.432C526.734 109.32 527.47 107.528 528.942 106.056C530.414 104.584 532.206 103.848 534.318 103.848C536.43 103.848 538.222 104.584 539.694 106.056C541.166 107.528 541.902 109.32 541.902 111.432C541.902 113.544 541.166 115.336 539.694 116.808ZM578.769 177.96C571.665 177.96 565.809 175.88 561.201 171.72C556.657 167.56 554.385 161.544 554.385 153.672C554.385 149.32 555.249 145.448 556.977 142.056C558.705 138.6 560.977 135.88 563.793 133.896C569.617 129.864 575.985 127.848 582.897 127.848C585.009 127.848 587.089 128.104 589.137 128.616C591.185 129.128 592.721 129.64 593.745 130.152L595.281 131.016V142.344H589.425L588.081 136.488C587.185 135.784 585.457 135.432 582.897 135.432C577.393 135.432 572.817 137.096 569.169 140.424C565.521 143.752 563.697 147.944 563.697 153C563.697 158.056 565.265 162.248 568.401 165.576C571.601 168.84 575.825 170.472 581.073 170.472C583.633 170.472 586.001 170.216 588.177 169.704C590.417 169.128 591.985 168.552 592.881 167.976L594.225 167.208L597.009 172.2C596.817 172.328 596.529 172.552 596.145 172.872C595.825 173.128 595.089 173.576 593.937 174.216C592.785 174.856 591.569 175.432 590.289 175.944C586.833 177.288 582.993 177.96 578.769 177.96Z" fill="#8F8F8F"/>
</svg>
