<svg width="145" height="150" viewBox="0 0 145 150" fill="none" xmlns="http://www.w3.org/2000/svg">
<path d="M72.5 145.5C110.186 145.5 140.5 114.027 140.5 75.4999C140.5 36.9726 110.186 5.49994 72.5 5.49994C34.8141 5.49994 4.5 36.9726 4.5 75.4999C4.5 114.027 34.8141 145.5 72.5 145.5Z" fill="#46474B" stroke="#F4CE14" stroke-width="9"/>
<path d="M96.7539 109.526L66.0792 127.236L63.5492 122.854L70.7147 114.335L38.9747 59.3598L28.0142 61.3058L25.4842 56.9237L56.2585 39.1562C67.0145 32.9462 77.5855 31.0923 87.9714 33.5946C98.3573 36.0969 106.617 42.6596 112.75 53.2829C118.884 63.9061 120.423 74.3929 117.369 84.7433C114.382 95.0553 107.51 103.316 96.7539 109.526ZM80.9461 108.826L93.694 101.466C100.865 97.3264 105.341 91.5105 107.124 84.0186C108.935 76.422 107.33 68.2749 102.308 59.5771C97.2868 50.8793 91.0338 45.4154 83.5494 43.1855C76.0268 40.8892 68.7133 41.7919 61.609 45.8936L48.8611 53.2536L80.9461 108.826Z" fill="#F5F7F8"/>
</svg>
