<svg width="555" height="150" viewBox="0 0 555 150" fill="none" xmlns="http://www.w3.org/2000/svg">
<path d="M72.5 145.5C110.186 145.5 140.5 114.027 140.5 75.5C140.5 36.9726 110.186 5.5 72.5 5.5C34.8141 5.5 4.5 36.9726 4.5 75.5C4.5 114.027 34.8141 145.5 72.5 145.5Z" fill="#45474B" stroke="#F4CE14" stroke-width="9"/>
<path d="M96.7539 109.526L66.0792 127.236L63.5492 122.854L70.7147 114.335L38.9747 59.3598L28.0142 61.3058L25.4842 56.9237L56.2585 39.1562C67.0145 32.9462 77.5855 31.0923 87.9714 33.5946C98.3573 36.0969 106.617 42.6596 112.75 53.2829C118.884 63.9061 120.423 74.3929 117.369 84.7433C114.382 95.0553 107.51 103.316 96.7539 109.526ZM80.9461 108.826L93.694 101.466C100.865 97.3264 105.341 91.5105 107.124 84.0186C108.935 76.422 107.33 68.2749 102.308 59.5771C97.2868 50.8793 91.0338 45.4154 83.5494 43.1855C76.0268 40.8892 68.7133 41.7919 61.609 45.8936L48.8611 53.2536L80.9461 108.826Z" fill="#F5F7F8"/>
<path d="M197.464 106H167.896V101.776L176.632 98.608V45.616L167.896 42.448V38.224H197.56C207.928 38.224 216.344 41.296 222.808 47.44C229.272 53.584 232.504 61.776 232.504 72.016C232.504 82.256 229.24 90.48 222.712 96.688C216.248 102.896 207.832 106 197.464 106ZM186.328 98.896H198.616C205.528 98.896 211.192 96.56 215.608 91.888C220.088 87.152 222.328 80.592 222.328 72.208C222.328 63.824 220.088 57.264 215.608 52.528C211.128 47.728 205.464 45.328 198.616 45.328H186.328V98.896ZM266.709 106.96C259.477 106.96 253.589 104.912 249.045 100.816C244.565 96.656 242.325 90.608 242.325 82.672C242.325 74.736 244.629 68.464 249.237 63.856C253.845 59.184 259.221 56.848 265.365 56.848C279.957 56.848 287.253 65.488 287.253 82.768H251.637V83.248C251.637 87.792 253.237 91.632 256.437 94.768C259.637 97.904 263.989 99.472 269.493 99.472C271.861 99.472 274.101 99.216 276.213 98.704C278.325 98.128 279.861 97.552 280.821 96.976L282.165 96.208L284.949 101.2C284.757 101.328 284.469 101.552 284.085 101.872C283.765 102.128 283.029 102.576 281.877 103.216C280.725 103.856 279.477 104.432 278.133 104.944C274.741 106.288 270.933 106.96 266.709 106.96ZM278.325 76.624C278.005 72.656 276.693 69.648 274.389 67.6C272.149 65.488 269.205 64.432 265.557 64.432C261.973 64.432 258.997 65.456 256.629 67.504C254.261 69.488 252.725 72.528 252.021 76.624H278.325ZM352.791 99.472C346.071 104.528 338.103 107.056 328.887 107.056C320.247 107.056 312.759 104.272 306.423 98.704C303.351 96.016 300.887 92.496 299.031 88.144C297.175 83.728 296.247 78.736 296.247 73.168C296.247 67.6 297.207 62.48 299.127 57.808C301.111 53.136 303.735 49.328 306.999 46.384C313.719 40.304 321.591 37.264 330.615 37.264C337.399 37.264 343.319 38.64 348.375 41.392V57.04H340.503L338.775 47.056C337.495 45.648 334.839 44.944 330.807 44.944C323.191 44.944 317.207 47.6 312.855 52.912C308.503 58.224 306.327 64.912 306.327 72.976C306.327 80.976 308.567 87.376 313.047 92.176C317.591 96.912 323.319 99.28 330.231 99.28C333.495 99.28 336.727 98.8 339.927 97.84C343.127 96.88 345.495 95.92 347.031 94.96L349.335 93.52L352.791 99.472ZM384.465 106H359.217V101.872L367.281 98.704V64.432H359.217V58.672C361.713 57.456 364.529 56.848 367.665 56.848C370.801 56.848 372.977 57.52 374.193 58.864C375.409 60.208 376.081 62.192 376.209 64.816C376.849 62.896 378.161 61.168 380.145 59.632C382.513 57.776 385.649 56.848 389.553 56.848C391.281 56.848 392.913 57.072 394.449 57.52C396.049 57.968 397.201 58.416 397.905 58.864L399.057 59.536V70.864H393.297L392.049 65.104C391.665 64.72 390.609 64.528 388.881 64.528C387.153 64.528 385.489 64.784 383.889 65.296C382.289 65.744 381.041 66.32 380.145 67.024C378.353 68.56 377.073 70.128 376.305 71.728V98.704L384.465 101.872V106ZM430.407 106H405.159V101.872L413.223 98.704V64.432H405.159V58.672C407.655 57.456 410.535 56.848 413.799 56.848C417.127 56.848 419.367 57.648 420.519 59.248C421.671 60.784 422.247 63.152 422.247 66.352V98.704L430.407 101.872V106ZM422.631 45.808C421.159 47.28 419.367 48.016 417.255 48.016C415.143 48.016 413.351 47.28 411.879 45.808C410.407 44.336 409.671 42.544 409.671 40.432C409.671 38.32 410.407 36.528 411.879 35.056C413.351 33.584 415.143 32.848 417.255 32.848C419.367 32.848 421.159 33.584 422.631 35.056C424.103 36.528 424.839 38.32 424.839 40.432C424.839 42.544 424.103 44.336 422.631 45.808ZM450.858 84.976C450.858 90.48 451.69 94.224 453.354 96.208C455.018 98.192 457.546 99.184 460.938 99.184C464.33 99.184 467.114 98.672 469.29 97.648L471.21 102.448C470.954 102.768 470.57 103.184 470.058 103.696C469.61 104.208 468.426 104.912 466.506 105.808C464.586 106.64 462.474 107.056 460.17 107.056C454.346 107.056 449.834 105.424 446.634 102.16C443.434 98.832 441.834 94 441.834 87.664V65.584H436.746V59.92L445.962 50.704H450.858V58H466.986V65.584H450.858V84.976ZM501.47 106H476.222V101.872L484.286 98.704V64.432H476.222V58.672C478.718 57.456 481.598 56.848 484.862 56.848C488.19 56.848 490.43 57.648 491.582 59.248C492.734 60.784 493.31 63.152 493.31 66.352V98.704L501.47 101.872V106ZM493.694 45.808C492.222 47.28 490.43 48.016 488.318 48.016C486.206 48.016 484.414 47.28 482.942 45.808C481.47 44.336 480.734 42.544 480.734 40.432C480.734 38.32 481.47 36.528 482.942 35.056C484.414 33.584 486.206 32.848 488.318 32.848C490.43 32.848 492.222 33.584 493.694 35.056C495.166 36.528 495.902 38.32 495.902 40.432C495.902 42.544 495.166 44.336 493.694 45.808ZM532.769 106.96C525.665 106.96 519.809 104.88 515.201 100.72C510.657 96.56 508.385 90.544 508.385 82.672C508.385 78.32 509.249 74.448 510.977 71.056C512.705 67.6 514.977 64.88 517.793 62.896C523.617 58.864 529.985 56.848 536.897 56.848C539.009 56.848 541.089 57.104 543.137 57.616C545.185 58.128 546.721 58.64 547.745 59.152L549.281 60.016V71.344H543.425L542.081 65.488C541.185 64.784 539.457 64.432 536.897 64.432C531.393 64.432 526.817 66.096 523.169 69.424C519.521 72.752 517.697 76.944 517.697 82C517.697 87.056 519.265 91.248 522.401 94.576C525.601 97.84 529.825 99.472 535.073 99.472C537.633 99.472 540.001 99.216 542.177 98.704C544.417 98.128 545.985 97.552 546.881 96.976L548.225 96.208L551.009 101.2C550.817 101.328 550.529 101.552 550.145 101.872C549.825 102.128 549.089 102.576 547.937 103.216C546.785 103.856 545.569 104.432 544.289 104.944C540.833 106.288 536.993 106.96 532.769 106.96Z" fill="#45474B"/>
</svg>
