<svg width="149" height="149" viewBox="0 0 149 149" fill="none" xmlns="http://www.w3.org/2000/svg">
<path d="M76.5 144.5C114.186 144.5 144.5 113.027 144.5 74.5C144.5 35.9726 114.186 4.5 76.5 4.5C38.8141 4.5 8.5 35.9726 8.5 74.5C8.5 113.027 38.8141 144.5 76.5 144.5Z" fill="#121212" stroke="#F05454" stroke-width="9"/>
<path d="M57.659 36.7103C64.4313 32.8003 72.1938 30.2219 80.9464 28.9752L90.3189 45.2089L83.1483 49.3489L75.3756 40.0262C70.9469 40.6355 66.6411 42.1477 62.4582 44.5627C54.4908 49.1627 49.7268 55.6313 48.1664 63.9685C46.634 72.201 48.2636 80.4669 53.0553 88.7663C57.8469 97.0657 64.0041 102.364 71.5268 104.66C79.0775 106.851 86.4382 105.877 93.6089 101.737C98.2566 99.054 102.338 95.2368 105.854 90.2857L96.7111 74.4504L84.9539 76.8564L82.4239 72.4743L110.609 56.2018L113.139 60.5839L105.973 69.1029L117.128 88.424C114.568 94.4168 110.466 99.884 104.82 104.825C102.376 107.033 99.3619 109.172 95.7766 111.242C92.1912 113.312 87.9518 114.786 83.0584 115.663C78.193 116.436 73.3618 116.348 68.5649 115.4C63.7679 114.451 59.1033 112.275 54.5712 108.872C50.0007 105.402 46.048 100.779 42.713 95.003C39.378 89.2266 37.3737 83.3017 36.7 77.2281C36.0263 71.1546 36.5341 65.5941 38.2233 60.5466C41.8187 50.0607 48.2973 42.1153 57.659 36.7103Z" fill="#E2DFD0"/>
</svg>
