<svg width="706" height="149" viewBox="0 0 706 149" fill="none" xmlns="http://www.w3.org/2000/svg">
<path d="M76.5 144.5C114.186 144.5 144.5 113.027 144.5 74.5C144.5 35.9726 114.186 4.5 76.5 4.5C38.8141 4.5 8.5 35.9726 8.5 74.5C8.5 113.027 38.8141 144.5 76.5 144.5Z" fill="#121212" stroke="#F05454" stroke-width="9"/>
<path d="M57.659 36.7103C64.4313 32.8003 72.1938 30.2219 80.9464 28.9752L90.3189 45.2089L83.1483 49.3489L75.3756 40.0262C70.9469 40.6355 66.6411 42.1477 62.4582 44.5627C54.4908 49.1627 49.7268 55.6313 48.1664 63.9685C46.634 72.201 48.2636 80.4669 53.0553 88.7663C57.8469 97.0657 64.0041 102.364 71.5268 104.66C79.0775 106.851 86.4382 105.877 93.6089 101.737C98.2566 99.054 102.338 95.2368 105.854 90.2857L96.7111 74.4504L84.9539 76.8564L82.4239 72.4743L110.609 56.2018L113.139 60.5839L105.973 69.1029L117.128 88.424C114.568 94.4168 110.466 99.884 104.82 104.825C102.376 107.033 99.3619 109.172 95.7766 111.242C92.1912 113.312 87.9518 114.786 83.0584 115.663C78.193 116.436 73.3618 116.348 68.5649 115.4C63.7679 114.451 59.1033 112.275 54.5712 108.872C50.0007 105.402 46.048 100.779 42.713 95.003C39.378 89.2266 37.3737 83.3017 36.7 77.2281C36.0263 71.1546 36.5341 65.5941 38.2233 60.5466C41.8187 50.0607 48.2973 42.1153 57.659 36.7103Z" fill="#E2DFD0"/>
<path d="M204.32 33.2641C210.848 33.2641 217.536 34.6401 224.384 37.3921V53.0401H217.472L215.744 43.0561C212.288 41.6481 208.544 40.9441 204.512 40.9441C196.832 40.9441 190.688 43.6321 186.08 49.0081C181.536 54.3201 179.264 60.9761 179.264 68.9761C179.264 76.9761 181.504 83.3761 185.984 88.1761C190.528 92.9121 196.256 95.2801 203.168 95.2801C207.648 95.2801 212.192 94.2241 216.8 92.1121V76.8481L207.296 73.6801V69.4561H234.464V73.6801L225.728 76.8481V95.4721C221.376 98.7361 216.128 100.976 209.984 102.192C207.296 102.768 204.224 103.056 200.768 103.056C197.312 103.056 193.632 102.352 189.728 100.944C185.888 99.4721 182.432 97.3921 179.36 94.7041C176.288 92.0161 173.824 88.4961 171.968 84.1441C170.112 79.7281 169.184 74.7361 169.184 69.1681C169.184 63.6001 170.208 58.4801 172.256 53.8081C174.304 49.1361 176.992 45.3281 180.32 42.3841C187.296 36.3041 195.296 33.2641 204.32 33.2641ZM288.876 95.4721V101.232C286.38 102.448 283.628 103.056 280.62 103.056C277.612 103.056 275.436 102.48 274.092 101.328C272.812 100.176 272.076 98.5121 271.884 96.3361C268.364 100.816 263.724 103.056 257.964 103.056C252.268 103.056 247.948 101.904 245.004 99.6001C242.06 97.2961 240.588 94.0641 240.588 89.9041C240.588 81.9041 246.156 77.2961 257.292 76.0801L271.788 74.5441V71.7601C271.788 68.0481 271.02 65.2321 269.484 63.3121C267.948 61.3921 265.516 60.4321 262.188 60.4321C256.044 60.4321 251.052 61.1041 247.212 62.4481L245.292 63.1201L243.564 56.9761C245.356 55.9521 248.076 55.0241 251.724 54.1921C255.372 53.2961 258.764 52.8481 261.9 52.8481C268.748 52.8481 273.612 54.2241 276.492 56.9761C279.372 59.6641 280.812 63.4721 280.812 68.4001V95.4721H288.876ZM257.772 82.3201C255.34 82.6401 253.388 83.3761 251.916 84.5281C250.508 85.6801 249.804 87.2481 249.804 89.2321C249.804 91.1521 250.572 92.6881 252.108 93.8401C253.708 94.9281 255.916 95.4721 258.732 95.4721C264.044 95.4721 268.396 94.0321 271.788 91.1521V80.7841L257.772 82.3201ZM382.622 102H357.374V97.8721L365.054 94.7041V71.7601C365.054 67.9841 364.414 65.1681 363.134 63.3121C361.918 61.4561 359.678 60.5281 356.414 60.5281C351.294 60.5281 346.91 62.3521 343.262 66.0001C343.454 66.7681 343.55 67.5681 343.55 68.4001V94.7041L352.094 97.8721V102H326.846V97.8721L334.526 94.7041V71.7601C334.526 67.9841 333.886 65.1681 332.606 63.3121C331.39 61.4561 329.15 60.5281 325.886 60.5281C320.638 60.5281 315.934 62.6081 311.774 66.7681V94.7041L319.934 97.8721V102H294.686V97.8721L302.75 94.7041V60.4321H294.686V54.6721C297.182 53.4561 300.03 52.8481 303.23 52.8481C306.43 52.8481 308.606 53.5521 309.758 54.9601C310.974 56.3681 311.646 58.4801 311.774 61.2961C312.67 60.1441 314.014 58.8321 315.806 57.3601C319.582 54.3521 323.838 52.8481 328.574 52.8481C335.614 52.8481 340.222 55.6641 342.398 61.2961C347.07 55.6641 352.638 52.8481 359.102 52.8481C364.094 52.8481 367.838 54.2561 370.334 57.0721C372.83 59.8241 374.078 63.6001 374.078 68.4001V94.7041L382.622 97.8721V102ZM430.877 96.1441C426.205 100.752 420.317 103.056 413.213 103.056C406.109 103.056 400.221 100.752 395.549 96.1441C390.877 91.4721 388.541 85.4241 388.541 78.0001C388.541 70.5761 390.877 64.5281 395.549 59.8561C400.221 55.1841 406.109 52.8481 413.213 52.8481C420.317 52.8481 426.205 55.1841 430.877 59.8561C435.549 64.5281 437.885 70.5761 437.885 78.0001C437.885 85.4241 435.549 91.4721 430.877 96.1441ZM402.173 90.8641C405.053 93.9361 408.733 95.4721 413.213 95.4721C417.693 95.4721 421.373 93.9361 424.253 90.8641C427.133 87.7281 428.573 83.5361 428.573 78.2881C428.573 73.0401 427.101 68.7521 424.157 65.4241C421.277 62.0961 417.629 60.4321 413.213 60.4321C408.797 60.4321 405.117 62.0961 402.173 65.4241C399.293 68.7521 397.853 73.0401 397.853 78.2881C397.853 83.5361 399.293 87.7281 402.173 90.8641ZM504.072 95.4721C497.352 100.528 489.384 103.056 480.168 103.056C471.528 103.056 464.04 100.272 457.704 94.7041C454.632 92.0161 452.168 88.4961 450.312 84.1441C448.456 79.7281 447.528 74.7361 447.528 69.1681C447.528 63.6001 448.488 58.4801 450.408 53.8081C452.392 49.1361 455.016 45.3281 458.28 42.3841C465 36.3041 472.872 33.2641 481.896 33.2641C488.68 33.2641 494.6 34.6401 499.656 37.3921V53.0401H491.784L490.056 43.0561C488.776 41.6481 486.12 40.9441 482.088 40.9441C474.472 40.9441 468.488 43.6001 464.136 48.9121C459.784 54.2241 457.608 60.9121 457.608 68.9761C457.608 76.9761 459.848 83.3761 464.328 88.1761C468.872 92.9121 474.6 95.2801 481.512 95.2801C484.776 95.2801 488.008 94.8001 491.208 93.8401C494.408 92.8801 496.776 91.9201 498.312 90.9601L500.616 89.5201L504.072 95.4721ZM535.747 102H510.499V97.8721L518.562 94.7041V60.4321H510.499V54.6721C512.995 53.4561 515.811 52.8481 518.947 52.8481C522.083 52.8481 524.259 53.5201 525.475 54.8641C526.691 56.2081 527.363 58.1921 527.491 60.8161C528.131 58.8961 529.443 57.1681 531.427 55.6321C533.795 53.7761 536.931 52.8481 540.835 52.8481C542.563 52.8481 544.195 53.0721 545.731 53.5201C547.331 53.9681 548.483 54.4161 549.187 54.8641L550.339 55.5361V66.8641H544.579L543.331 61.1041C542.947 60.7201 541.891 60.5281 540.163 60.5281C538.435 60.5281 536.771 60.7841 535.171 61.2961C533.571 61.7441 532.323 62.3201 531.427 63.0241C529.635 64.5601 528.355 66.1281 527.587 67.7281V94.7041L535.747 97.8721V102ZM581.689 102H556.441V97.8721L564.505 94.7041V60.4321H556.441V54.6721C558.937 53.4561 561.817 52.8481 565.081 52.8481C568.409 52.8481 570.649 53.6481 571.801 55.2481C572.953 56.7841 573.529 59.1521 573.529 62.3521V94.7041L581.689 97.8721V102ZM573.913 41.8081C572.441 43.2801 570.649 44.0161 568.537 44.0161C566.425 44.0161 564.633 43.2801 563.161 41.8081C561.689 40.3361 560.953 38.5441 560.953 36.4321C560.953 34.3201 561.689 32.5281 563.161 31.0561C564.633 29.5841 566.425 28.8481 568.537 28.8481C570.649 28.8481 572.441 29.5841 573.913 31.0561C575.385 32.5281 576.121 34.3201 576.121 36.4321C576.121 38.5441 575.385 40.3361 573.913 41.8081ZM602.14 80.9761C602.14 86.4801 602.972 90.2241 604.636 92.2081C606.3 94.1921 608.828 95.1841 612.22 95.1841C615.612 95.1841 618.396 94.6721 620.572 93.6481L622.492 98.4481C622.236 98.7681 621.852 99.1841 621.34 99.6961C620.892 100.208 619.708 100.912 617.788 101.808C615.868 102.64 613.756 103.056 611.452 103.056C605.628 103.056 601.116 101.424 597.916 98.1601C594.716 94.8321 593.116 90.0001 593.116 83.6641V61.5841H588.028V55.9201L597.244 46.7041H602.14V54.0001H618.268V61.5841H602.14V80.9761ZM652.751 102H627.503V97.8721L635.567 94.7041V60.4321H627.503V54.6721C629.999 53.4561 632.879 52.8481 636.143 52.8481C639.471 52.8481 641.711 53.6481 642.863 55.2481C644.015 56.7841 644.591 59.1521 644.591 62.3521V94.7041L652.751 97.8721V102ZM644.975 41.8081C643.503 43.2801 641.711 44.0161 639.599 44.0161C637.487 44.0161 635.695 43.2801 634.223 41.8081C632.751 40.3361 632.015 38.5441 632.015 36.4321C632.015 34.3201 632.751 32.5281 634.223 31.0561C635.695 29.5841 637.487 28.8481 639.599 28.8481C641.711 28.8481 643.503 29.5841 644.975 31.0561C646.447 32.5281 647.183 34.3201 647.183 36.4321C647.183 38.5441 646.447 40.3361 644.975 41.8081ZM684.05 102.96C676.946 102.96 671.09 100.88 666.482 96.7201C661.938 92.5601 659.666 86.5441 659.666 78.6721C659.666 74.3201 660.53 70.4481 662.258 67.0561C663.986 63.6001 666.258 60.8801 669.074 58.8961C674.898 54.8641 681.266 52.8481 688.178 52.8481C690.29 52.8481 692.37 53.1041 694.418 53.6161C696.466 54.1281 698.002 54.6401 699.026 55.1521L700.562 56.0161V67.3441H694.706L693.362 61.4881C692.466 60.7841 690.738 60.4321 688.178 60.4321C682.674 60.4321 678.098 62.0961 674.45 65.4241C670.802 68.7521 668.978 72.9441 668.978 78.0001C668.978 83.0561 670.546 87.2481 673.682 90.5761C676.882 93.8401 681.106 95.4721 686.354 95.4721C688.914 95.4721 691.282 95.2161 693.458 94.7041C695.698 94.1281 697.266 93.5521 698.162 92.9761L699.506 92.2081L702.29 97.2001C702.098 97.3281 701.81 97.5521 701.426 97.8721C701.106 98.1281 700.37 98.5761 699.218 99.2161C698.066 99.8561 696.85 100.432 695.57 100.944C692.114 102.288 688.274 102.96 684.05 102.96Z" fill="black"/>
</svg>
